<svg xmlns="http://www.w3.org/2000/svg" version="1.0" preserveAspectRatio="xMidYMid meet" viewBox="26 17 245.85 50" width="180.000000pt" height="78.000000pt">
<g transform="translate(0.000000,78.000000) scale(0.100000,-0.100000)" fill="#000000" stroke="none">
<path d="M316 591 c-50 -33 -55 -53 -56 -209 0 -220 12 -232 230 -232 218 0 230 12 230 230 0 218 -12 230 -232 230 -124 0 -147 -3 -172 -19z m311 -41 c35 -23 43 -55 43 -176 0 -114 0 -116 -29 -145 -29 -29 -30 -29 -149 -29 -115 0 -122 1 -151 26 l-31 26 0 126 c0 141 9 164 65 182 45 14 226 7 252 -10z"/>
<path d="M534 382 c-4 -21 -13 -32 -27 -34 -30 -4 -34 -28 -4 -28 19 0 26 -6 31 -30 7 -37 24 -39 28 -3 2 19 10 29 26 33 30 7 30 23 0 30 -13 3 -24 15 -26 25 -7 36 -22 40 -28 7z"/>
<path d="M915 548 c-8 -26 -16 -34 -37 -36 -22 -3 -28 -9 -28 -28 0 -19 5 -24 25 -24 l25 0 0 -105 c0 -99 2 -107 25 -130 18 -19 35 -25 70 -25 44 0 45 1 45 33 0 30 -2 32 -37 32 l-38 0 -3 98 -3 97 41 0 c36 0 40 2 40 25 0 23 -4 25 -40 25 -39 0 -40 1 -40 35 0 47 -32 49 -45 3z"/>
<path d="M1171 493 c-12 -14 -24 -43 -27 -65 -10 -61 -24 -44 -17 22 l6 60 -29 0 -29 0 0 -155 0 -155 33 0 32 0 0 85 c0 60 5 96 16 118 21 40 31 47 72 47 30 0 32 2 32 35 0 33 -2 35 -34 35 -25 0 -40 -7 -55 -27z"/>
<path d="M1713 508 c-12 -6 -31 -29 -43 -52 l-20 -41 2 48 c3 45 2 47 -24 47 l-28 0 0 -200 0 -200 31 0 32 0 -6 95 c-3 52 -3 95 -1 95 2 0 11 -17 20 -39 17 -42 47 -61 97 -61 70 0 111 59 110 160 0 41 -6 77 -17 97 -28 54 -98 78 -153 51z m78 -67 c24 -25 29 -38 29 -78 0 -60 -17 -95 -52 -107 -37 -13 -72 7 -94 52 -23 48 -13 100 26 135 38 34 54 34 91 -2z"/>
<path d="M1983 500 c-83 -50 -95 -196 -23 -265 24 -23 41 -30 88 -33 72 -5 112 13 135 60 16 33 16 33 -10 42 -21 7 -29 5 -39 -10 -27 -39 -36 -44 -73 -44 -43 0 -75 27 -86 73 l-7 27 111 0 111 0 0 30 c0 109 -115 176 -207 120z m122 -55 c45 -44 35 -55 -55 -55 l-81 0 16 30 c28 55 80 66 120 25z"/>
<path d="M2288 504 c-66 -35 -92 -176 -45 -245 29 -43 60 -59 120 -59 60 0 102 21 123 61 18 35 18 35 -19 44 -20 5 -27 3 -27 -7 0 -25 -35 -48 -74 -48 -44 0 -86 36 -86 75 l0 25 106 0 107 0 -5 48 c-5 53 -30 94 -66 111 -33 15 -102 13 -134 -5z m107 -40 c14 -6 45 -53 45 -69 0 -3 -36 -5 -80 -5 -44 0 -80 2 -80 5 0 18 32 64 47 68 28 7 50 8 68 1z"/>
<path d="M2631 496 c-12 -13 -24 -40 -28 -60 -10 -65 -27 -55 -20 12 l7 62 -30 0 -30 0 0 -155 0 -155 34 0 34 0 -2 87 c-1 72 3 94 19 123 17 29 28 36 58 38 20 2 37 9 37 15 0 7 3 22 6 35 6 20 3 22 -28 22 -23 0 -42 -8 -57 -24z"/>
<path d="M1280 400 c0 -161 21 -200 108 -200 33 0 45 6 66 31 14 17 26 38 26 47 0 9 5 24 11 32 8 11 9 -2 5 -47 l-6 -63 30 0 30 0 0 155 0 155 -35 0 -35 0 0 -92 c0 -74 -4 -99 -19 -125 -25 -39 -54 -50 -86 -29 -28 19 -38 70 -33 174 l3 72 -32 0 -33 0 0 -110z"/>
</g>
</svg>